<?xml version="1.0" standalone="no"?><!DOCTYPE svg PUBLIC "-//W3C//DTD SVG 1.1//EN" "http://www.w3.org/Graphics/SVG/1.1/DTD/svg11.dtd"><svg t="1677567677901" class="icon" viewBox="0 0 1024 1024" version="1.1" xmlns="http://www.w3.org/2000/svg" p-id="1177" width="64" height="64" xmlns:xlink="http://www.w3.org/1999/xlink"><path d="M512 160a352 352 0 1 0 0 704 352 352 0 0 0 0-704zM96 512c0-229.76 186.24-416 416-416s416 186.24 416 416-186.24 416-416 416S96 741.76 96 512z" fill="#202046" p-id="1178"></path><path d="M364.8 529.066667a32 32 0 0 1 44.8 6.4 128 128 0 0 0 204.8 0 32 32 0 1 1 51.2 38.4c-76.8 102.4-230.4 102.4-307.2 0a32 32 0 0 1 6.4-44.8z" fill="#202046" p-id="1179"></path></svg>